<svg viewBox="0 0 1024 1024" xmlns="http://www.w3.org/2000/svg" id="图层_1"><defs><style>.cls-1{fill:#02c3ff;}.cls-2{fill:#262d33;}.cls-3{fill:#ffa836;}.cls-4{fill:#fe7236;}.cls-5{fill:#0078ff;}.cls-6,.cls-7{fill:#fbf5f0;}.cls-6{stroke:#262d33;stroke-linecap:round;stroke-linejoin:round;stroke-width:3px;}</style></defs><polygon points="784.82 701.78 784.82 874.7 429.42 874.7 438.98 861.53 555.04 701.78 784.82 701.78" class="cls-1"></polygon><path d="M784.82,877H429.42a2.25,2.25,0,0,1-1.82-3.57L553.22,700.46a2.24,2.24,0,0,1,1.82-.93H784.82a2.25,2.25,0,0,1,2.25,2.25V874.7A2.25,2.25,0,0,1,784.82,877Zm-351-4.5H782.57V704H556.19Z" class="cls-2"></path><rect rx="86.46" height="172.92" width="172.92" y="701.78" x="611.9" class="cls-3"></rect><path d="M698.36,877a88.71,88.71,0,1,1,88.71-88.71A88.81,88.81,0,0,1,698.36,877Zm0-172.92a84.21,84.21,0,1,0,0,168.42h0a84.21,84.21,0,0,0,0-168.42Z" class="cls-2"></path><path d="M705,495.42q-5.79,8.82-12.39,17.05Z" class="cls-1"></path><path d="M692.59,514.72a2.26,2.26,0,0,1-1.82-3.58l12.39-17.05a2.25,2.25,0,0,1,3.7,2.56c-3.89,5.92-8.1,11.71-12.51,17.22A2.23,2.23,0,0,1,692.59,514.72Z" class="cls-2"></path><path d="M741.59,372.8a222.48,222.48,0,0,1-36.38,122.27,3.78,3.78,0,0,1-.22.33v0l-12.39,17.05h0a225.06,225.06,0,0,1-37.53,36.95,223.92,223.92,0,0,1-205.76,36.08L579.9,403.86A69.17,69.17,0,1,0,450,384.81L298,411.62a223.75,223.75,0,0,1-3.37-38.82c0-123.44,100.06-223.5,223.5-223.5C628.29,149.3,719.85,229,738.23,334A224.64,224.64,0,0,1,741.59,372.8Z" class="cls-1"></path><path d="M518.09,598.55a225.81,225.81,0,0,1-69.5-10.9,2.26,2.26,0,0,1-1.13-3.46L578,402.7a66.93,66.93,0,0,0-59.88-96.82,66.95,66.95,0,0,0-65.91,78.53,2.24,2.24,0,0,1-1.82,2.61l-152,26.82a2.28,2.28,0,0,1-1.68-.38,2.22,2.22,0,0,1-.93-1.45,226.79,226.79,0,0,1-3.4-39.21c0-124.48,101.27-225.75,225.75-225.75a225.78,225.78,0,0,1,189,349.25c-.05.09-.13.21-.22.34a.61.61,0,0,1-.07.1l-12.39,17-.11.15a227.43,227.43,0,0,1-37.87,37.26A223.5,223.5,0,0,1,518.09,598.55ZM452.93,584.3a221.4,221.4,0,0,0,237.89-73.22l12.29-16.91.08-.12.1-.15a220.38,220.38,0,0,0,36.05-121.1A221.22,221.22,0,0,0,518.09,151.55c-122,0-221.25,99.25-221.25,221.25a224.12,224.12,0,0,0,3,36.21L447.4,383A71.42,71.42,0,1,1,589.51,372.8a70.72,70.72,0,0,1-7.6,32.08,2.38,2.38,0,0,1-.18.3Z" class="cls-2"></path><path d="M705.22,495.08l-.23.32a3.78,3.78,0,0,0,.22-.33Z" class="cls-1"></path><path d="M705,497.65a2.21,2.21,0,0,1-1.33-.44,2.24,2.24,0,0,1-.49-3.13l.12-.18a2.26,2.26,0,0,1,4.11.64,2.27,2.27,0,0,1-.35,1.86l-.2.28a.18.18,0,0,0-.05.07A2.26,2.26,0,0,1,705,497.65Z" class="cls-2"></path><polygon points="555.04 701.78 438.98 861.53 429.42 874.7 239.18 874.7 364.81 701.78 555.04 701.78" class="cls-1"></polygon><path d="M429.42,877H239.18a2.25,2.25,0,0,1-1.82-3.57L363,700.46a2.25,2.25,0,0,1,1.83-.93H555a2.25,2.25,0,0,1,1.83,3.57L431.24,876A2.25,2.25,0,0,1,429.42,877Zm-185.82-4.5H428.27L550.63,704H366Z" class="cls-2"></path><polygon points="454.44 756.85 412.31 814.85 408.84 819.63 339.78 819.63 385.39 756.85 454.44 756.85" class="cls-4"></polygon><path d="M408.84,821.88H339.78A2.25,2.25,0,0,1,338,818.3l45.61-62.77a2.25,2.25,0,0,1,1.82-.93h69.05a2.26,2.26,0,0,1,2,1.23,2.29,2.29,0,0,1-.18,2.35L410.66,821A2.25,2.25,0,0,1,408.84,821.88Zm-64.64-4.5h63.49L450,759.1h-63.5Z" class="cls-2"></path><path d="M692.58,512.48,555,701.78H364.82l84.47-116.27a223.62,223.62,0,0,0,243.29-73Z" class="cls-5"></path><path d="M555,704H364.82a2.25,2.25,0,0,1-1.83-3.57l84.47-116.27a2.26,2.26,0,0,1,2.52-.82,221.38,221.38,0,0,0,68.11,10.68,219.12,219.12,0,0,0,135.58-46.4,222.89,222.89,0,0,0,37.16-36.58,2.25,2.25,0,0,1,3.58,2.73L556.87,703.1A2.27,2.27,0,0,1,555,704Zm-185.81-4.5H553.9l116-159.62q-6.5,5.91-13.44,11.29a223.5,223.5,0,0,1-138.34,47.35,225.86,225.86,0,0,1-67.94-10.4Z" class="cls-2"></path><path d="M772.87,677.88,753.18,637c6.63.91,6.79,2.38,6.79,2.38,4.4,9.8,6.87,11.34,8.06,11.22,1.11,2.75,2.37,4.88,3.48,4.1,2.65-1.89-3.71-16.76-3.71-16.76-2.38-9.19-11.82-10-11.82-10-30-3.23-67.47-3.23-67.47-3.23s.45-5,1.89-6.57a4.14,4.14,0,0,1,2.75-1.56c2-7.18-4.28-12.81-4.64-13.14,0,.81-.51,2.15-2.17,4.25-3.38,4.27-4.47,4.29-4.49,4.29s-.6-1.25-1.41-.62-1.09,4.92,2.58,5.28c1.08.09,3.68,17.93-1.62,19.53-2.23.63-3.22-1.69-3.39-5.55s-5.65-8.77-5.65-8.77v0s-10.64.24-11.58,12.44-4.07,58-4.07,58-20.91,2.5-20.91,6.09c0,2.65,6.32,1.71,9.63,1h0c1.59,1.46,6.48,2.54,19.51-1.39,1.26-.77,8.28-22,10.7-39,.51,7.55,4.36,44.13,30.4,42.77,21.45-1.11,33.42-24.63,38.21-36.86l13.26,36.93h28.66Zm-61.09-17-9.5-22.92s19-1.48,34.28-1.65C727.83,642.88,711.78,660.85,711.78,660.85Z" class="cls-6"></path><path d="M680.44,611.32c-.82.63-1.09,4.92,2.58,5.28,1.08.09,3.68,17.93-1.62,19.53-2.23.63-3.22-1.69-3.39-5.55s-5.65-8.77-5.65-8.77v0c4.11-7.33-1.79-9.3,2.86-15.22s12.9-4.29,12.9-4.29a1.25,1.25,0,0,1,.39,1.12c0,.81-.51,2.15-2.17,4.25-3.38,4.27-4.47,4.29-4.49,4.29S681.25,610.69,680.44,611.32Z" class="cls-5"></path><path d="M680.71,637.73a3.2,3.2,0,0,1-1.93-.62c-1.4-1-2.12-3.06-2.27-6.46-.12-2.63-3.85-6.56-5.15-7.73a1.52,1.52,0,0,1-.31-1.86,9,9,0,0,0,1.08-7.06,9,9,0,0,1,1.91-8.36c5.18-6.56,14-4.91,14.37-4.83a1.22,1.22,0,0,1,.55.23,2.71,2.71,0,0,1,1,2.42c-.08,1.43-.89,3.09-2.5,5.12-3.83,4.86-5.21,4.86-5.66,4.86a1.34,1.34,0,0,1-.4-.06,2.42,2.42,0,0,0,.25.86,1.7,1.7,0,0,0,1.47.87c.82.07,2,.16,2.69,7,.44,4.14.93,13.94-4,15.44A4.39,4.39,0,0,1,680.71,637.73Zm-6.51-16.24c1.68,1.67,5.15,5.53,5.31,9s.94,4.11,1,4.17.15.1.47,0c.56-.17,1-.93,1.23-1.53,1.68-4.1.58-12.94-.14-15.2a4.56,4.56,0,0,1-3.44-3.33c-.44-1.54-.23-3.64.88-4.5a2.18,2.18,0,0,1,1.86-.43,2.55,2.55,0,0,1,.75.33,23.44,23.44,0,0,0,3-3.31,8.7,8.7,0,0,0,1.8-3.08c-2.07-.19-7.36-.19-10.56,3.86-1.94,2.47-1.69,3.86-1.32,6A11.77,11.77,0,0,1,674.2,621.49Zm8.64-3.4h0Zm-2.4-6.77h0Zm1-.83Z" class="cls-2"></path><path d="M768,650.59a76,76,0,0,1-2.79-9" class="cls-7"></path><path d="M768,652.09a1.49,1.49,0,0,1-1.39-.93,76,76,0,0,1-2.86-9.17,1.5,1.5,0,1,1,2.92-.7,74.13,74.13,0,0,0,2.72,8.74,1.5,1.5,0,0,1-.83,2A1.36,1.36,0,0,1,768,652.09Z" class="cls-2"></path><path d="M688.51,604.9h0a1.5,1.5,0,1,1,1.5-1.5A1.5,1.5,0,0,1,688.5,604.9Z" class="cls-2"></path><line y2="664.81" x2="744.24" y1="664.9" x1="744.27" class="cls-7"></line><path d="M744.23,666.36a1.43,1.43,0,0,1-1.38-1l0-.09a1.5,1.5,0,0,1,2.84-1,1.55,1.55,0,0,1-.93,1.95A1.49,1.49,0,0,1,744.23,666.36Z" class="cls-2"></path><path d="M736.56,636.28c2.61,0,5.13,0,7.41,0a82.45,82.45,0,0,1,9.21.68" class="cls-7"></path><path d="M753.18,638.49l-.21,0a85.1,85.1,0,0,0-9-.66c-2.38-.06-4.85-.07-7.35,0a1.52,1.52,0,0,1-1.52-1.47,1.5,1.5,0,0,1,1.47-1.53c2.54,0,5.06,0,7.48,0a86.15,86.15,0,0,1,9.38.69,1.5,1.5,0,0,1-.21,3Z" class="cls-2"></path><path d="M744.27,664.9c1.71-4.35,2.52-7.26,2.52-7.26" class="cls-7"></path><path d="M744.27,666.4a1.52,1.52,0,0,1-.55-.1,1.51,1.51,0,0,1-.85-1.95c1.66-4.21,2.47-7.08,2.47-7.11a1.5,1.5,0,1,1,2.89.81c0,.12-.85,3-2.57,7.4A1.49,1.49,0,0,1,744.27,666.4Z" class="cls-2"></path><path d="M645.45,700.9h0a1.5,1.5,0,1,1,1.51-1.5A1.5,1.5,0,0,1,645.43,700.9Z" class="cls-2"></path><path d="M676.48,648.49a71.86,71.86,0,0,1-.82,10.5" class="cls-7"></path><path d="M675.66,660.49h-.21a1.52,1.52,0,0,1-1.28-1.7,69.54,69.54,0,0,0,.81-10.27,1.51,1.51,0,0,1,1.49-1.52,1.45,1.45,0,0,1,1.51,1.49,72.75,72.75,0,0,1-.84,10.72A1.49,1.49,0,0,1,675.66,660.49Z" class="cls-2"></path><path d="M645.43,699.4a1.77,1.77,0,0,1-.66-1.39c.09-1.55,10.16-2.39,10.16-2.39" class="cls-7"></path><path d="M645.43,700.9a1.51,1.51,0,0,1-1-.39,3.23,3.23,0,0,1-1.14-2.62c.05-1,.16-2.81,11.52-3.76a1.47,1.47,0,0,1,1.62,1.37,1.5,1.5,0,0,1-1.37,1.62,46.3,46.3,0,0,0-8.44,1.36,1.49,1.49,0,0,1-1.18,2.42Z" class="cls-2"></path><line y2="660.86" x2="711.78" y1="670.54" x1="702.76" class="cls-7"></line><path d="M702.76,672a1.54,1.54,0,0,1-1-.4,1.49,1.49,0,0,1-.07-2.12l9-9.68a1.5,1.5,0,1,1,2.2,2l-9,9.68A1.49,1.49,0,0,1,702.76,672Z" class="cls-2"></path><path d="M720.78,602.78a4,4,0,0,0-1.5,0h0a13.19,13.19,0,0,1-1.86.19H717a5.46,5.46,0,0,1-2.44-.49,2.28,2.28,0,0,1-.82-.67,2.74,2.74,0,0,1-.68-2v-3.37a4.09,4.09,0,0,0-.31-1.42,6.64,6.64,0,0,0-2.36-2.92h0a11.58,11.58,0,0,1-3.18-3.91,11.45,11.45,0,1,1,20.52,0,11.51,11.51,0,0,1-3.22,3.92l0,0h0c-3,2-3.2,3.85-3.21,3.93v.73c0,.21,0,.32,0,.92a2.38,2.38,0,0,1-1.32,2.26,4.53,4.53,0,0,1-2.1.42h-.17a7.47,7.47,0,0,1-1.87-.16Z" class="cls-3"></path><path d="M717,604.46a6.75,6.75,0,0,1-3.12-.66,3.7,3.7,0,0,1-1.31-1.06,4.25,4.25,0,0,1-1-2.9v-3.37h0a2.88,2.88,0,0,0-.21-.88,5.29,5.29,0,0,0-1.84-2.25,13.13,13.13,0,0,1-3.65-4.46,12.95,12.95,0,1,1,23.2,0,13.14,13.14,0,0,1-3.64,4.44l-.13.09c-2.09,1.38-2.48,2.57-2.54,2.79v1.55a3.91,3.91,0,0,1-1.81,3.4l.47.23a1.5,1.5,0,0,1-1.11,2.78,3.17,3.17,0,0,0-.8,0,19.71,19.71,0,0,1-2.18.21Zm.47-31.27a10,10,0,0,0-8.92,14.36,10.08,10.08,0,0,0,2.76,3.4,8.16,8.16,0,0,1,2.84,3.55,5.76,5.76,0,0,1,.41,2v3a1.49,1.49,0,0,1,1.62-.59,5.7,5.7,0,0,0,1.46.11h.19a3.17,3.17,0,0,0,1.42-.25.9.9,0,0,0,.5-.93v-1.65c0-.53.34-2.84,3.88-5.18a10,10,0,0,0-6.16-17.77Z" class="cls-2"></path><path d="M720.78,602.78a4,4,0,0,0-1.5,0h0a13.19,13.19,0,0,1-1.86.19H717a5.46,5.46,0,0,1-2.44-.49,2.28,2.28,0,0,1-.82-.67,2.74,2.74,0,0,1-.68-2v-3.37a4.09,4.09,0,0,0-.31-1.42,6.64,6.64,0,0,0-2.36-2.92h0a11.58,11.58,0,0,1-3.18-3.91,11.45,11.45,0,1,1,20.52,0,11.51,11.51,0,0,1-3.22,3.92l0,0h0c-3,2-3.2,3.85-3.21,3.93v.73c0,.21,0,.32,0,.92a2.38,2.38,0,0,1-1.32,2.26,4.53,4.53,0,0,1-2.1.42h-.17a7.47,7.47,0,0,1-1.87-.16" class="cls-3"></path><path d="M717,604.46a6.75,6.75,0,0,1-3.12-.66,3.7,3.7,0,0,1-1.31-1.06,4.25,4.25,0,0,1-1-2.9v-3.37h0a2.88,2.88,0,0,0-.21-.88,5.29,5.29,0,0,0-1.84-2.25,13.13,13.13,0,0,1-3.65-4.46,12.95,12.95,0,1,1,23.2,0,13.14,13.14,0,0,1-3.64,4.44l-.13.09c-2.09,1.38-2.48,2.57-2.54,2.79v1.55a3.9,3.9,0,0,1-1.9,3.46,2,2,0,0,1,.35.09,1.5,1.5,0,0,1-.9,2.86,3.17,3.17,0,0,0-.8,0,19.71,19.71,0,0,1-2.18.21Zm.47-31.27a10,10,0,0,0-8.92,14.36,10.08,10.08,0,0,0,2.76,3.4,8.16,8.16,0,0,1,2.84,3.55,5.76,5.76,0,0,1,.41,2v3a1.51,1.51,0,0,1,1.62-.59,5.7,5.7,0,0,0,1.46.11h.19a3.17,3.17,0,0,0,1.42-.25.9.9,0,0,0,.5-.93v-1.65c0-.53.34-2.84,3.88-5.18a10,10,0,0,0-6.16-17.77Z" class="cls-2"></path><path d="M717.51,567.4a1.5,1.5,0,0,1-1.5-1.5v-7.79a1.5,1.5,0,1,1,3,0v7.79A1.5,1.5,0,0,1,717.51,567.4Z" class="cls-2"></path><line y2="567.51" x2="708.91" y1="562.23" x1="705.42" class="cls-3"></line><path d="M708.91,569a1.49,1.49,0,0,1-1.25-.67l-3.49-5.29a1.5,1.5,0,0,1,2.5-1.65l3.49,5.28a1.5,1.5,0,0,1-.42,2.08A1.47,1.47,0,0,1,708.91,569Z" class="cls-2"></path><line y2="568.32" x2="727.19" y1="563.03" x1="731.49" class="cls-3"></line><path d="M727.19,569.82a1.5,1.5,0,0,1-1.16-2.45l4.3-5.28a1.5,1.5,0,1,1,2.32,1.89l-4.3,5.29A1.48,1.48,0,0,1,727.19,569.82Z" class="cls-2"></path></svg>